<?xml version="1.0" encoding="utf-8"?>
<!-- Generator: Adobe Illustrator 22.1.0, SVG Export Plug-In . SVG Version: 6.00 Build 0)  -->
<!DOCTYPE svg PUBLIC "-//W3C//DTD SVG 1.1//EN" "http://www.w3.org/Graphics/SVG/1.1/DTD/svg11.dtd" [
	<!ENTITY ns_svg "http://www.w3.org/2000/svg">
	<!ENTITY ns_xlink "http://www.w3.org/1999/xlink">
]>
<svg version="1.1" id="Vrstva_1" xmlns="http://www.w3.org/2000/svg" xmlns:xlink="http://www.w3.org/1999/xlink" x="0px" y="0px" width="312.5" height="360" 
	 viewBox="0 0 312.5 360" style="enable-background:new 0 0 312.5 360;" xml:space="preserve">
<style type="text/css">
	.st0{fill-rule:evenodd;clip-rule:evenodd;fill:#FFD700;}
	.st1{fill-rule:evenodd;clip-rule:evenodd;fill:#002F6C;}
	.st2{fill:#1A1A18;}
	.st3{fill-rule:evenodd;clip-rule:evenodd;fill:#1A1A18;}
	.st4{fill:#FFD700;}
	.st5{fill:#FFFFFF;}
	.st6{fill:none;stroke:#1A1A18;stroke-width:0.216;stroke-miterlimit:2.414;}
	.st7{fill-rule:evenodd;clip-rule:evenodd;fill:#FFFFFF;}
	.st8{fill-rule:evenodd;clip-rule:evenodd;fill:#00843D;}
</style>
<g>
	<path class="st0" d="M156.3,359.5c84.6,0,155-68,155-152.6c0-2.6,0.1-4.6,0-7.2l-310-0.1c-0.1,2.6,0.2,4.7,0.2,7.3
		C1.4,291.5,71.7,359.5,156.3,359.5"/>
	<rect x="1.8" y="2.3" class="st1" width="309.1" height="198.1"/>
	<path class="st2" d="M78.7,189.2c-16.6,0-31.6-6.7-42.6-17.6c-10.9-10.9-17.7-26-17.7-42.5c0-16.6,6.7-31.6,17.6-42.5
		c10.9-10.9,26-17.7,42.5-17.7c16.6,0,31.6,6.7,42.5,17.6c10.9,10.9,17.7,26,17.7,42.5c0,16.6-6.7,31.6-17.6,42.5
		C110.3,182.4,95.3,189.2,78.7,189.2 M43.3,100.7l27.3,14.7l-0.1-31c-5.8,1-10.9,3-15.4,5.8C50.7,92.9,46.7,96.5,43.3,100.7z
		 M86.7,84.4l0.1,30.5l26.4-15.3c-3.5-4.2-7.5-7.5-12-10.1C96.9,87.1,92,85.4,86.7,84.4z M121.3,113.5l-26.2,15.1l26.7,14.6
		c1.6-4.9,2.3-10,2.2-15C124,123.2,123,118.2,121.3,113.5z M36,144.3l26.2-15.1L35.6,115c-0.5,1.7-0.9,3.3-1.3,5.1
		c-0.6,2.8-1,5.8-1,9.1c0,3.4,0.3,6.6,1,9.5C34.8,140.5,35.3,142.4,36,144.3z M44.1,158.2c3.4,4.1,7.5,7.5,12,10.1
		c4.4,2.5,9.3,4.3,14.6,5.3l0-30.5L44.1,158.2z M87,142.7l-0.2,30.9c5.9-1.1,11-3.1,15.4-5.8c4.4-2.7,8.3-6.3,11.8-10.4L87,142.7z"
		/>
	<path class="st0" d="M83.9,81.1c13.8,1.6,25,8,33.6,19.3l-33.4,19.3L83.9,81.1z M39.8,157.4l33.6-19.1l0,38.6
		C59.4,175.3,47.9,168.3,39.8,157.4z M34.6,148.4c-2.6-6-4.1-12.1-4.1-19.3c0-6.8,1.6-12.8,3.5-18.2l34,18.2L34.6,148.4z M39,101.6
		c8.2-11.4,19.4-18.8,34.4-20.5l0.1,38.9L39,101.6z M122.7,109.5c5.2,11.4,5.7,25.4,0.7,37.8l-34-18.5L122.7,109.5z M84.2,137.9
		l-0.2,39c15.3-1.9,26-9.3,34.4-20.4L84.2,137.9z M78.7,186.4c31.6,0,57.4-25.8,57.3-57.4c0-31.6-25.8-57.4-57.4-57.3
		C47,71.6,21.3,97.4,21.3,129C21.3,160.6,47.1,186.4,78.7,186.4z"/>
	<path class="st2" d="M7.4,224.9c6.7-0.7,12.1-4,17.6-7.3c7.1-4.3,14.2-8.6,24.5-8.6h-0.1c11.4-0.5,19.7,3.9,28.1,8.3
		c7.1,3.7,14.3,7.5,23.3,7.8c8.8-0.2,16.3-3.7,24-7.2c8.9-4.1,18.1-8.4,30.1-8.3h0.1c12.3,0.5,21.5,4.4,30.5,8.1
		c8.4,3.5,16.6,6.9,26.8,7.1c8.8-0.2,15.5-3.7,22.3-7.2c7.5-3.9,15.2-7.9,26-8.1h0.1c9.6,0.3,19.6,5,28.6,9.3
		c6.2,2.9,11.8,5.6,16,6.2c0,0,2.5,0.5,4.1,0.9c-0.7,7.2-4.3,22.2-6.9,29.7c-1.9-0.2-3-0.5-4.7-1.2c-11.8-5.2-24.4-15.9-37.1-15.9
		c-7.6,0.5-14.3,4.1-21.2,7.7c-8.2,4.3-16.5,8.7-26.8,8.8h0c-10.8,0.1-20.1-4-29.6-8.3c-8.9-4-17.9-8-28.2-8.2
		c-9.6,0-18.3,4.1-26.9,8.2c-8.8,4.2-17.5,8.3-27.5,8.6h-0.2c-9.4-0.4-17.3-4.2-25.4-8.1c-7.9-3.9-16.1-7.8-25.7-8.2
		c-6.4,0.3-12.5,4.2-18.5,8c-5.1,3.3-10.2,6.5-15.7,8c-1,0.2-3.5,0.9-5,0.8c-2.5-6.8-6.4-24.9-7.3-30.2C5,225.2,6.4,225,7.4,224.9"
		/>
	<path class="st2" d="M20.5,267c1.4-0.8,3-1.7,4.5-2.7c7.1-4.3,14.2-8.6,24.5-8.6h-0.1c11.4-0.5,19.7,3.9,28.1,8.3
		c7.1,3.8,14.3,7.5,23.3,7.8c8.8-0.2,16.3-3.7,24-7.2c8.9-4.1,18.1-8.4,30.1-8.3h0.1c12.3,0.5,21.5,4.4,30.5,8.1
		c8.4,3.5,16.6,6.9,26.8,7.1c8.8-0.2,15.5-3.7,22.3-7.2c7.5-3.9,15.2-7.9,26-8.1h0.1c9.6,0.3,19.6,5,28.6,9.3c0.8,0.4,1.6,0.8,3,1.4
		c0.2,0.1,2.4,1.1,4.1,1.8c-1.6,6.8-8.9,18.1-14.1,24.9c-1.2-0.3-3.2-1.3-4.1-1.8c-4.3-2.3-12.9-7.2-17.3-6.7
		c-7.6,0.5-14.3,4.1-21.2,7.7c-8.2,4.3-16.5,8.7-26.8,8.8h0c-10.8,0.1-20.1-4-29.6-8.3c-8.9-4-17.9-8-28.2-8.2
		c-9.6,0-18.3,4.1-26.9,8.2c-8.8,4.2-17.5,8.3-27.5,8.6h-0.2c-9.4-0.4-17.3-4.2-25.4-8.1c-7.9-3.9-16.1-7.8-25.7-8.2
		c-2.8,0.1-5.4,0.9-8,2c-2.3,1-4.6,2.3-6.9,3.7c-1.2,0.8-2.4,1.2-3.8,1.6c-3.9-3.8-11.3-18-13.9-23.8
		C17.9,268.3,19.7,267.4,20.5,267"/>
	<path class="st2" d="M42.9,303.9c0.8-0.2,1.6-0.3,2.4-0.4c1.3-0.2,2.7-0.2,4.1-0.3h-0.1c11.4-0.5,19.7,3.9,28.1,8.3
		c7.1,3.7,14.3,7.5,23.3,7.8c8.8-0.2,16.3-3.7,24-7.2c8.9-4.1,18.1-8.4,30.1-8.3h0.1c12.3,0.5,21.5,4.4,30.5,8.1
		c8.4,3.5,16.6,6.9,26.8,7.1c8.8-0.2,15.5-3.7,22.3-7.2c7.5-3.9,15.2-7.9,26-8.1h0.1c1.4,0,2.8,0.2,4.2,0.4c1.4,0.2,2.8,0.5,4.2,0.9
		l5,1.3c-17.3,18-32.7,30.8-62.7,43.5c-10.8,0.1-18.9-4.1-28.4-8.5c-8.8-4.1-17.8-8.3-28-8.5c-9.6,0-18.3,4.1-26.9,8.2
		c-5.4,2.5-10.7,5.1-16.3,6.7c-3.6,1.1-5.7,1.6-9.6,1.7c-24-11.1-47.6-23-63.9-44.3C41.1,304.3,40.4,304.4,42.9,303.9"/>
	<path class="st1" d="M5.1,228c17.7,0,26.1-16.1,44.8-16.1c20.5-0.9,31.1,15.5,51.3,16.1c19.8-0.4,32.1-15.7,54.1-15.5
		c23.5,1,35.8,14.8,57.4,15.2c19.2-0.5,28.2-14.9,48.3-15.3c16.4,0.5,35.3,15.5,46.1,15.6l-6.2,24.6c-8.1-1-27.9-15.9-39.7-16.9
		c-17.2,1.1-29.5,16.4-48,16.6c-20.4,0.3-36.1-16.1-57.7-16.5c-19.9-0.1-35.2,16.2-54.5,16.8c-18.1-0.7-31.3-15.6-51.2-16.3
		c-14,0.5-25,15.5-38.4,16.7L5.1,228z"/>
	<path class="st1" d="M19.4,270.9c8.9-4.8,18.2-12.3,30.5-12.3c20.5-0.9,31.1,15.5,51.3,16.1c19.8-0.4,32.1-15.7,54.1-15.5
		c23.5,1,35.8,14.8,57.4,15.2c19.2-0.5,28.2-14.9,48.3-15.3c10.3,0.3,22.8,6.9,32.5,11.4c-3,6.8-6.8,13.8-12,19.9
		c-6.8-3.6-14.9-7.5-20.3-8c-17.2,1.1-29.5,16.4-48,16.6c-20.4,0.3-36.1-16.1-57.7-16.5c-19.9-0.1-35.2,16.3-54.5,16.8
		c-18.1-0.7-31.3-15.6-51.2-16.3c-6.4,0.2-13.6,4.5-19.3,8L19.4,270.9z"/>
	<path class="st1" d="M43.1,306.9c2.3-0.5,4.7-0.9,7.3-0.9c20.5-0.9,31.1,15.5,51.3,16.1c19.8-0.4,32.1-15.7,54.1-15.5
		c23.5,1,35.8,14.8,57.4,15.2c19.2-0.5,28.2-14.9,48.3-15.3c2.6,0.1,5.2,0.5,7.8,1.2c-15.5,15.3-32.7,28.9-55.9,39.3
		c-20.4,0.3-35.9-16.8-57.5-17.1c-19.9-0.1-35.2,16.3-54.5,16.8C80.5,336.5,56.2,324.3,43.1,306.9"/>
	<path class="st3" d="M0,0h312.5v211.3C296.8,408.7,17.7,410.5,0,211.3V0z M5,5l148.7,0l0,191.8L5,196.8L5,5z M158.7,5l148.8,0
		l0,191.8H158.7L158.7,5z M5,201.8h302.5C299.3,402.7,15.3,407.1,5,201.8z"/>
	<path class="st2" d="M79.8,17.2h0.3l0.4,0l0,0l0.4,0.1l0.1,0l0.4,0.1l0.1,0l0.4,0.1l0.1,0l0.4,0.2l0.1,0l0.4,0.2l0.1,0.1l0.3,0.2
		l0,0l0.3,0.3l0.1,0.1l0.3,0.3l0,0.1l0.2,0.3l0,0.1l0.2,0.4l0,0.1l0.2,0.4l0,0.1l0.2,0.5l0,0.1l0.1,0.5l0,0.1l0.1,0.5l0,0.1l0,0.5
		v0.1l0,0.3l0.3,0.1l0.1,0l0.3,0.1l0.1,0l0.3,0.1l0.1,0l0.3,0.2l0.1,0l0.3,0.2l0,0l0.3,0.2l0.1,0.1l0.2,0.2l0.1,0l0.2,0.3l0.1,0.1
		l0.2,0.3l0,0.1l0.2,0.3l0,0.1l0.2,0.4l0,0.1l0.1,0.4l0,0.1l0.1,0.5l0,0.1l0.1,0.5l0,0.1l0,0.5v0.1l0,0.5l0,0.1l-0.1,0.5l0,0.1
		l-0.1,0.5l0,0.1l-0.1,0.4l0,0.1l-0.2,0.4l0,0.1l-0.2,0.3l0,0.1l-0.2,0.3L87.8,31l-0.2,0.3l0,0l-0.2,0.2l-0.1,0.1l-0.3,0.2l-0.1,0
		l-0.3,0.2l-0.1,0l-0.4,0.2l0,0l-0.4,0.2l-0.1,0l-0.4,0.1l-0.1,0l-0.5,0.1l-0.1,0L84,32.9l-0.1,0l-0.5,0h-0.1l0.1,0.5l0,0l0.2,0.7
		l0.2,0.7l0.3,0.7l0.3,0.7l0.3,0.7l0.4,0.6l0,0l0.4,0.6l0.5,0.6l0.5,0.5l0.5,0.5l0.8,0.7l0.9,0.6l0.8,0.5l0.9,0.4l0.7,0.2l0.8,0.2
		l0.7,0.1l-0.1,0l0.7,0l0.6,0l-0.1,0l0.6-0.1l0.5-0.1l0.5-0.2l0.5-0.2l0.5-0.3l0.5-0.4l0.5-0.5l0.6-0.7l0.5-0.8l0,0.1l0.4-0.8
		l0.3-0.8l0.2-0.8l0.2-0.8L100,35l0,0.1l0-0.2c-0.9-0.3-3.4-2.4-2.7-5.7c0.6-3.4,4.1-4.3,5.2-4.1c2.4-0.1,5,2.2,5.1,4.8
		c0.2,2.9-2,4.7-2.7,4.9l0,0.1l0,0.6l0.1,0.6l0.1,0.6l0.2,0.6l0.3,0.6l0.3,0.6l0.4,0.6l0.4,0.4l0.4,0.4l0.3,0.3l0.4,0.2l0.3,0.2
		l0.3,0.1l0.3,0.1l0.3,0.1l0.5,0l0.5,0l0.8-0.2l0.7-0.3l0.7-0.3l-0.1,0l0.7-0.4l0.6-0.4l0.7-0.6l0.7-0.6l0.6-0.6l0.7-0.8l0.6-0.9
		l0.5-0.9l0.5-1.1l0.5-1.2l0.4-1.2l0.4-1.7l0,0l0.3-1.8l0.2-1.3l0,0l0.3-1.3l0-0.1l0.3-0.9l0-0.1l0.4-0.9l0-0.1l0.3-0.5l0-0.1
		l0.4-0.5l0.1-0.1l0.3-0.3l0.1-0.1l0.4-0.3l0.1,0l0.4-0.2l0.1,0l0.4-0.2l0.1,0l0.4-0.2l0.1,0l0.1,0l0.1-0.2l0-0.1l0.3-0.5l0-0.1
		l0.4-0.5l0.1-0.1l0.4-0.4l0,0l0.5-0.4l0.1-0.1l0.5-0.3l0.1,0l0.5-0.3l0,0l0.5-0.2l0.1,0l0.5-0.2l0.1,0l0.5-0.1l0.1,0l0.4-0.1l0.1,0
		l0.5,0h0.1l0.3,0l0.1,0l0.3,0l0.1,0l0.5,0.1l0.2,0.1l0.3,0.2l0.1,0.1l0.2,0.2l0.1,0.1l0.2,0.2l0.1,0.1l0.2,0.3l0.1,0.1l0.1,0.4
		l0,0.1l0,0.3l0,0.1v0.4l0,0.4l0,0.1l-0.1,0.4l0,0.1l-0.1,0.5l0,0.1l-0.2,0.5l0,0.1l-0.3,0.6l0,0.1l-0.3,0.6l0,0.1l-0.5,0.7
		l-0.1,0.1l-0.6,0.6l-0.1,0.1c-0.9,3.8-3.8,5.3-5.8,5.5l-0.2,0.8l-0.1,0.8l-0.2,1.9l0,0l-0.2,1.7l0,0l-0.1,0.6l0,0l-0.2,0.6l0,0
		l-0.2,0.5l0,0l-0.2,0.5l0,0l-0.3,0.7l0,0l-0.3,0.6l0,0l-0.9,1.5h0l-0.4,0.7l-0.4,0.7l-0.2,0.6l-0.2,0.6l-0.1,0.5l0,0.5v0l0,1l0,0.8
		v1.2l0.9,0l0,8.2l-1,0l0,2.6l-80.8,0l0-2.7l-1,0l0-8.2h1l0-1.2l0-0.8l0-1.1v0.1l-0.1-0.6l-0.1-0.5l-0.2-0.7l-0.3-0.7l-0.3-0.6l0,0
		l-0.4-0.7l0,0l-0.8-1.4l0,0l-0.3-0.6l0,0l-0.3-0.6l0,0l-0.2-0.5l0,0l-0.2-0.5l0,0L36,35.9l0-0.1l-0.1-0.7l0,0l-0.1-1l0,0l-0.1-1v0
		l-0.1-1.1l0,0l-0.2-1l-0.2-0.7L35.1,30c-3.6-0.6-5.5-2.9-6-5.7l0,0L29,24.2l-0.5-0.5l-0.1-0.1L28,23l0-0.1l-0.4-0.7l0-0.1l-0.3-0.7
		l0-0.1l-0.2-0.5l0-0.1L27,20.2l0-0.1l0-0.4l0-0.1v-0.4l0-0.1l0.1-0.5l0-0.1l0.1-0.4l0.1-0.2l0.2-0.3l0.1-0.1l0.2-0.2l0.1-0.1
		l0.2-0.2l0.2-0.1l0.3-0.1l0.1,0l0.5-0.1l0.1,0l0.3,0h0.1l0.3,0l0.1,0l0.5,0.1l0.1,0l0.5,0.1l0.1,0l0.5,0.2l0,0l0.5,0.2l0.1,0
		l0.5,0.2l0.1,0l0.5,0.3l0.1,0l0.5,0.3l0,0l0.4,0.4l0.1,0.1l0.4,0.4l0,0.1l0.4,0.5l0,0.1l0.3,0.5l0,0.1l0.1,0.2l0.1,0l0.1,0l0.4,0.2
		l0.1,0l0.4,0.2l0.1,0l0.4,0.2l0.1,0l0.4,0.3l0.1,0.1l0.3,0.3l0.1,0.1l0.4,0.5l0.1,0.1l0.3,0.5l0,0.1l0.3,0.6l0,0.1l0.2,0.6l0,0.1
		l0.2,0.7l0,0.1l0.3,1.6l0,0l0.3,1.6v0l0.4,1.8l0,0l0.5,1.8l0.3,1l0.4,0.9l0.5,0.9l0.5,0.9l0,0l0.6,0.8l0.6,0.8l0.6,0.7l0.7,0.6l0,0
		l0.8,0.6l0,0l0.6,0.4l0.7,0.4l0.6,0.3l0.5,0.2l0.5,0.1l0.5,0.1l0.6,0l0.5,0l0.3-0.1l0.3-0.1l0.3-0.1l0.3-0.1l0.3-0.2l0.3-0.2
		l0.3-0.3l0.3-0.3l0.4-0.4l0.3-0.4l0.3-0.5l0.2-0.5l0,0.1l0.2-0.6l0.1-0.5l0.1-0.5l0.1-0.5l0-0.5l0-0.2c-0.5-0.2-3-1.9-2.7-5
		c0.2-2.4,2.3-4.7,5.2-4.7c3,0,5,2.5,5.2,4.7c0.3,2.4-1.7,4.7-2.8,5l0,0.5L60,36l0.2,0.9l0.3,0.8l0.4,0.8l0.4,0.7l0.5,0.7l0.5,0.6
		l0.5,0.5l0.5,0.4l0.5,0.3l0.5,0.2l0.5,0.2l0.5,0.1l0.5,0.1l0.6,0l0.8,0l0.7-0.1l0.9-0.2l0.8-0.3l1-0.5l1-0.6l0.8-0.6l0.8-0.7
		l0.7-0.8l0.6-0.8l0.6-0.9l0.5-0.9l0.4-0.9l0.3-1l0.2-0.9h-0.1l-0.5,0l-0.1,0l-0.5-0.1l-0.1,0l-0.5-0.1l-0.1,0l-0.5-0.1l-0.1,0
		l-0.4-0.2l-0.1,0l-0.4-0.2l0,0L73,31.9l-0.1,0l-0.3-0.2l-0.1,0l-0.3-0.2l-0.1-0.1L72,31l0-0.1l-0.2-0.3l0-0.1l-0.2-0.3l0-0.1
		l-0.2-0.4l0-0.1l-0.1-0.4l0-0.1l-0.1-0.5l0-0.1L71,28.4l0-0.1l0-0.5v-0.1l0-0.5l0-0.1l0.1-0.5l0-0.1l0.1-0.5l0-0.1l0.1-0.4l0-0.1
		l0.2-0.4l0-0.1l0.2-0.3l0-0.1l0.2-0.3l0.1-0.1l0.2-0.3l0.1,0l0.2-0.2l0.1-0.1l0.3-0.2l0,0l0.3-0.2l0.1,0l0.3-0.1l0.1,0l0.3-0.1
		l0.1,0l0.3-0.1l0.1,0l0.3-0.1l0-0.3v-0.1l0-0.5l0-0.1l0.1-0.5l0-0.1l0.1-0.5l0-0.1l0.2-0.5l0-0.1l0.2-0.4l0.1-0.1l0.2-0.4l0,0
		l0.2-0.3L76,19l0.3-0.3l0.1-0.1l0.3-0.3l0.1,0l0.3-0.2l0.1,0l0.3-0.2l0.1,0l0.4-0.2l0.1,0l0.4-0.1l0.1,0l0.4-0.1l0.1,0l0.7-0.1
		l0.1,0L79.8,17.2z"/>
	<path class="st4" d="M41.1,46.1v1.3l3.9,0c3,0.1,4,2.8,4,3.9c0,3-2.2,4.1-3.9,4.3l-4,0v1.1h77.6v-1.1l-3.9,0
		c-1.2,0.1-4.1-1-4.1-4.2c0.2-3.1,2.8-3.9,4.1-4l3.9,0v-1.3H41.1z M76.8,47.3L76.8,47.3l5.6,0h0c1.3,0,2.2,0.5,2.8,1.1
		c1,0.9,1.3,2.2,1.3,2.9v0c0,1.3-0.5,2.3-1.2,3c-0.9,0.9-2.1,1.3-3,1.2l-5.5,0c-2.3,0-4.1-1.8-4.1-4.1c0-1.1,0.5-2.1,1.2-2.9
		C74.6,47.8,75.6,47.3,76.8,47.3z"/>
	<path class="st5" d="M80,24.4c-1.5,0-2.8,1.2-2.8,2.8c0,0.8,0.3,1.4,0.8,1.9c0.5,0.5,1.2,0.8,2,0.8c0.8,0,1.4-0.3,1.9-0.8
		c0.5-0.5,0.8-1.2,0.8-1.9C82.7,25.6,81.5,24.4,80,24.4"/>
	<path class="st4" d="M80,22.8c2.4,0,4.3,1.9,4.3,4.3c0,1.2-0.5,2.3-1.3,3.1c-0.8,0.8-1.9,1.3-3.1,1.3c-1.2,0-2.3-0.5-3.1-1.3
		c-0.8-0.8-1.3-1.9-1.3-3.1C75.6,24.8,77.6,22.8,80,22.8 M79.9,18.7l-0.1,0L79.9,18.7l-0.7,0.1l-0.3,0.1L78.6,19l-0.3,0.2l-0.3,0.2
		l-0.3,0.2l-0.2,0.2L77.2,20L77,20.3l-0.2,0.3l-0.1,0.3l-0.1,0.4l-0.1,0.4l-0.1,0.4l0,0.5l0,0.5l0-0.1l0.1,0.5l0.1,0.9l-0.9,0
		l-0.3,0l-0.2,0l-0.3,0l-0.3,0.1l-0.2,0.1l-0.2,0.1l-0.2,0.2l0,0L73.7,25l-0.2,0.2l-0.2,0.2l-0.1,0.2L73,25.9l-0.1,0.3l-0.1,0.4
		l-0.1,0.4l-0.1,0.4l0,0.4l0,0.4l0,0.3l0.1,0.4l0.1,0.3l0.1,0.3l0.1,0.2l0.2,0.2l0.2,0.2l0.2,0.2l0.2,0.2l0.3,0.2l0,0l0.4,0.2
		l0.3,0.1l0.4,0.1l0.4,0.1l0.4,0.1l-0.1,0l0.4,0l0.5,0l-0.1,0l0.5-0.1l1-0.2l-0.1,1l-0.1,1l0,0.1l-0.2,1l0,0.1l-0.3,1l0,0.1l-0.4,1
		l0,0.1l-0.5,1l0,0.1l-0.6,0.9l0,0.1l-0.7,0.9l0,0.1l-0.8,0.8l0,0l-0.9,0.8l-0.1,0l-0.9,0.7l-0.1,0l-1,0.6l-0.1,0l-1,0.5l-0.1,0
		l-0.9,0.3l-0.1,0l-0.9,0.2l-0.1,0l-0.8,0.1l-0.1,0l-0.8,0h-0.1l-0.7,0l-0.1,0l-0.7-0.1l-0.1,0l-0.6-0.1l-0.1,0l-0.6-0.2l-0.1,0
		L63,43l-0.1,0l-0.5-0.3l-0.1,0l-0.6-0.4l-0.1-0.1l-0.5-0.5l0,0l-0.6-0.7l0-0.1L60,40.1l0-0.1l-0.5-0.8l0-0.1l-0.4-0.9l0-0.1
		l-0.3-0.9l0-0.1l-0.2-0.9l0-0.1l-0.2-1l0-0.1l0-0.2l-1.7,0l0,0.4l0,0.1l-0.1,0.6l0,0.1l-0.1,0.6l0,0.1l-0.2,0.6l0,0L55.9,38l0,0.1
		l-0.3,0.5l0,0l-0.3,0.5l0,0.1l-0.3,0.5l0,0.1l-0.4,0.5l0,0l-0.4,0.4l-0.1,0.1L53.6,41l0,0l-0.4,0.3l-0.1,0l-0.4,0.2l-0.1,0
		l-0.4,0.2l-0.1,0L51.9,42l0,0l-0.4,0.1l-0.1,0l-0.4,0.1l-0.1,0l-0.6,0h-0.1l-0.6-0.1l-0.1,0l-0.6-0.1l-0.1,0l-0.5-0.2l-0.1,0
		l-0.5-0.2l-0.1,0l-0.7-0.3l-0.1,0l-0.7-0.4l0,0l-0.7-0.5l0,0l-0.8-0.6l0,0l-0.7-0.6l0,0l-0.7-0.7l0,0l-0.7-0.8l0,0l-0.6-0.8l0,0
		l-0.5-0.9l0-0.1l-0.5-1l0-0.1l-0.4-1l0-0.1l-0.4-1l0-0.1l-0.5-1.8l0,0L39,28.8v0l-0.3-1.6l0,0l-0.3-1.6L38.2,25L38,24.4l-0.3-0.6
		l-0.3-0.5L37.1,23l-0.3-0.3l-0.3-0.2l-0.3-0.2l-0.3-0.2L35.5,22l-0.4-0.1l-0.5-0.4L34.4,21l-0.3-0.4l-0.3-0.4l-0.4-0.4l-0.4-0.3
		l-0.4-0.3l-0.4-0.2l-0.5-0.2l-0.5-0.2l-0.5-0.1l-0.4-0.1l-0.4,0l-0.3,0l-0.3,0l-0.4,0.1L29,18.5l-0.1,0.1l-0.1,0.1l-0.1,0.1
		L28.6,19l-0.1,0.4v0.3l0,0.3l0.1,0.5l0.1,0.4l0.3,0.7c0.1-0.3,0.1-0.7,0.2-0.9c6.2-0.1,7.5,6.1,7.2,8.3l0,0.1l0.2,0.7l0,0.1
		l0.2,0.7l0,0.1l0.2,1.1l0,0l0.1,1.1v0l0.1,1l0,0l0.1,1l0.1,0.7l0.2,0.6l0,0l0.2,0.5l0,0l0.2,0.5l0.3,0.6l0.3,0.6l0,0l0.8,1.4l0,0
		l0.4,0.7l0,0l0.4,0.7l0,0.1l0.3,0.7l0,0.1l0.2,0.8l0,0.1l0.1,0.6l0,0.1l0.1,0.6v0.1l0,0.3h77.7l0-0.2v0l0-0.5l0-0.1l0.1-0.5l0-0.1
		l0.2-0.7l0-0.1l0.3-0.7l0-0.1l0.4-0.8l0,0l0.4-0.8h0l0.9-1.5l0,0l0.3-0.6l0.3-0.7l0,0l0.2-0.5l0,0l0.2-0.5l0,0l0.2-0.6l0.1-0.6l0,0
		l0.2-1.7l0,0l0.2-1.9l0,0l0.1-0.9l0-0.1l0.2-0.9l0-0.1l0.1-0.3c-0.8-6.9,4.8-8.4,7.1-8.5c0.2,0.4,0.1,0.8,0.2,1.1l0.3-0.5l0.2-0.4
		l0.1-0.5l0.1-0.4l0,0.1l0-0.4v-0.2l0-0.2l-0.1-0.3l-0.1-0.2l-0.1-0.1l-0.1-0.1l-0.2-0.1l-0.3-0.1l-0.2,0l-0.3,0l-0.4,0l0.1,0
		l-0.4,0.1l0.1,0l-0.5,0.1l-0.5,0.2l-0.5,0.2l0,0l-0.5,0.3l-0.4,0.3l-0.4,0.3l-0.3,0.3l-0.4,0.4l-0.3,0.4l-0.3,0.5l-0.5,0.4
		l-0.4,0.1l-0.3,0.1l-0.4,0.2l-0.3,0.2l-0.3,0.3l-0.3,0.3l-0.3,0.4l-0.3,0.4l-0.4,0.8l-0.3,0.8l-0.3,1.2l0,0l-0.2,1.3l-0.3,1.8l0,0
		l-0.4,1.7l0,0.1l-0.4,1.2l0,0.1l-0.5,1.2l0,0l-0.5,1.2l0,0.1l-0.6,1l0,0.1l-0.6,0.9l0,0.1l-0.7,0.9l0,0L116,39l0,0l-0.7,0.7l0,0
		l-0.8,0.6l-0.1,0l-0.7,0.4l0,0l-0.7,0.4l-0.1,0l-0.7,0.3l-0.1,0l-0.8,0.3l-0.1,0l-0.9,0.2l-0.1,0l-0.6,0.1l-0.1,0l-0.6,0l-0.1,0
		l-0.4-0.1l-0.1,0l-0.4-0.1l0,0l-0.4-0.1l-0.1,0l-0.4-0.2l-0.1,0l-0.5-0.3l-0.1,0l-0.4-0.3l-0.1,0l-0.5-0.5l-0.1-0.1l-0.4-0.5
		l-0.1-0.1l-0.4-0.6l0-0.1l-0.4-0.6l0-0.1l-0.3-0.6l0-0.1l-0.2-0.7l0-0.1l-0.2-0.6l0-0.1l-0.1-0.7l0-0.1l0-0.6l-1.7,0l0,0.1l0,0.1
		l-0.1,0.9l0,0.1l-0.2,0.9l0,0.1l-0.3,0.8l0,0.1l-0.4,0.9l0,0.1l-0.4,0.8l0,0.1l-0.5,0.8l0,0.1l-0.6,0.8l-0.1,0.1L98.2,42L98.1,42
		l-0.6,0.5l-0.1,0l-0.5,0.4l-0.1,0l-0.6,0.3l-0.1,0l-0.6,0.2l-0.1,0L95,43.7l-0.1,0l-0.6,0.1l-0.1,0l-0.6,0h-0.1l-0.8,0l-0.1,0
		l-0.8-0.1l-0.1,0L91,43.5l-0.1,0l-0.8-0.3l-0.1,0l-1-0.4l-0.1,0l-0.9-0.5l-0.1,0l-1-0.6l-0.1,0l-0.9-0.7l0,0l-0.6-0.5l0,0l-0.5-0.6
		l0,0L84.4,39l0,0l-0.5-0.6l0,0l-0.4-0.7l0-0.1l-0.4-0.7l0,0l-0.3-0.7l0,0l-0.3-0.7l0-0.1l-0.2-0.7l0-0.1L82,33.8l0,0l-0.2-0.8
		l0-0.1l-0.1-0.8l-0.1-1l1,0.1l0.5,0.1l-0.1,0l0.5,0l0.4,0l-0.1,0l0.4-0.1l0.4-0.1l0.4-0.1l0.3-0.1l0.3-0.2l0.3-0.2l0.2-0.2l0.2-0.2
		l0.2-0.2l0.2-0.3l0.1-0.2l0.1-0.3l0.1-0.3l0.1-0.4l0-0.3l0-0.4l0-0.4l-0.1-0.4l-0.1-0.4L87,26.2l-0.1-0.3l-0.2-0.3l-0.1-0.2
		l-0.2-0.2L86.1,25l-0.2-0.2l0,0l-0.2-0.2l-0.2-0.1l-0.2-0.1L85,24.4l-0.3,0l-0.2,0l-0.3,0l-0.9,0l0.1-0.9l0.1-0.5l0,0.1l0-0.5
		l0-0.5l-0.1-0.4l-0.1-0.4l-0.1-0.4L83,20.6l-0.2-0.3L82.6,20l-0.2-0.2l-0.2-0.2l-0.3-0.2l-0.3-0.2L81.2,19L81,18.9l-0.3-0.1
		l-0.4-0.1l0,0L79.9,18.7L79.9,18.7z"/>
	<path class="st5" d="M57.4,26.5c-1,0-1.9,0.4-2.6,1.1c-0.7,0.7-1.1,1.6-1.1,2.6c0,2,1.6,3.6,3.6,3.6c1,0,1.9-0.4,2.6-1.1
		c0.7-0.7,1.1-1.6,1.1-2.6C61,28.1,59.4,26.5,57.4,26.5"/>
	<path class="st5" d="M102.3,26.6c-1,0-1.9,0.4-2.6,1.1c-0.7,0.7-1.1,1.6-1.1,2.6c0,1,0.4,1.9,1.1,2.6c0.7,0.7,1.6,1.1,2.6,1.1
		c1,0,1.9-0.4,2.6-1.1c0.7-0.7,1.1-1.6,1.1-2.6C106,28.2,104.3,26.6,102.3,26.6"/>
	<path class="st5" d="M34.9,28.3C34.9,28.3,34.9,28.3,34.9,28.3c0-1.2-0.3-2.6-1-3.7c-0.7-1.1-1.8-2-3.2-2.3c0,0-0.1,0-0.1,0
		C30.3,25.8,32.5,27.8,34.9,28.3"/>
	<path class="st5" d="M129.1,22.4c-2.4,0.6-4.6,2.6-4.3,6c0,0,0.1,0,0.1,0c1.4-0.3,2.5-1.2,3.2-2.3C128.8,25,129.2,23.6,129.1,22.4
		C129.1,22.4,129.1,22.4,129.1,22.4"/>
	<path class="st5" d="M44.9,48.9l-4.8,0l0,5.1l4.8,0c1.4,0,2.5-1.1,2.5-2.5c0-0.7-0.3-1.3-0.7-1.8C46.2,49.2,45.6,48.9,44.9,48.9"/>
	<path class="st5" d="M114.9,48.9c-0.7,0-1.3,0.3-1.8,0.8c-0.5,0.5-0.7,1.1-0.7,1.8c0,1.4,1.1,2.5,2.5,2.5l4.8,0l0-5.1L114.9,48.9z"
		/>
	<path class="st5" d="M76.8,48.9c-0.7,0-1.3,0.3-1.8,0.8c-0.5,0.5-0.7,1.1-0.7,1.8c0,1.4,1.1,2.5,2.5,2.5l5.6,0h0
		c0.5,0,1.3-0.2,1.8-0.8c0.4-0.4,0.7-1,0.7-1.9c0-0.4-0.2-1.2-0.8-1.8c-0.4-0.4-1-0.7-1.8-0.7h0L76.8,48.9z"/>
	<path class="st3" d="M233.4,153.4c2.7,0,4.4,1.8,4.7,4.4c-3.1-1.4-6.6-1.2-9.6,0.5C228.5,155.6,230.7,153.4,233.4,153.4
		 M237.6,147.6l0-17.6c5.1,0.7,9.8,2.8,13.7,5.9L239,148.3C238.5,148,238.2,147.9,237.6,147.6z M244.5,155.5c-0.1-0.4-0.3-1-0.4-1.2
		l12.6-12.7c2.9,4,4.8,8.7,5.3,13.9L244.5,155.5z M210.6,173c-0.1-0.1-0.2-0.2-0.2-0.4c-1.8-1.9-3.4-3.2-4.2-5.8
		c-0.4-1.2-0.6-2.3-0.9-3.6l14.7,0C216.3,166.6,212.7,170.4,210.6,173z M222.3,155.5l-17.2,0c0.5-5.1,2.4-9.8,5.2-13.7l12.4,12.4
		C222.6,154.5,222.3,155.1,222.3,155.5z M227.8,148.3l-12.2-12.2c3.9-3.1,8.5-5.3,13.7-6l0,17.5C228.9,147.7,228.4,148,227.8,148.3z
		 M158.4,196.6l148.7,0.5l0-6.9c-11.9-12.1-24.5-36.2-36.5-31.8c0-0.1,0-0.2,0-0.3c-0.1-14.3-8.5-26.8-20.4-32.9
		c-3.1-8.5-4-25-1.3-28.6c18.1-23.8,13.7-33.9,13.7-35.8c3.5-1.7,5.9-3.8,7.9-6c4.5,5.9,15,11.6,22.9,3.4c2-4.3-11.8,1.3-14-7
		c6-3.1,7.4,3,14.9,2c5.3-0.5,8.5-1.9,12.8-10.2c0.1-1.6,0.1-5.2-2.3-4.4c-2.1,2.2-5.1,7.8-9.4,7.2c-1.1-3.9,9.8-2.9,8.4-18.2
		c0.1-2.5-3.7-2.4-3.8-0.7c-0.4,5.6-8,12.1-10.4,11.8c-1.6-0.2,1.1-3.3-1.1-4.8c-3.9-0.2-2.1,4.4-8.2,4.1c-0.5-2.8,9.2-9.3,6.2-14.3
		c-6.8,0.3-4.5,7.6-19.4,10.6c-8,0.4-11.4,3.3-17.6,7.3c-3.9-2.6-8.2-5.4-13.1-6.3c4.2,6.1,1.3,7.3,3.5,13.7
		c-2.6,3.4-10.8,7.8-18.6,6.6c-1.9-0.1-3.7,1.3-3.8,3.4c-0.1,5-0.9,6.8,0.3,10.3c0.8,2.3,2.4,3.8,5.7,3.9c5.3,0.3,6.2-2.2,10.3-0.9
		c-2.3,1-2.6,2.6-6.5,3.5c-4.2,1-11,1.6-15,5.7c-3.8-4.1-7.5-14-12.3-17c-1.8-0.6-4.2-0.5-6.3-0.5c-20.1,2.5-25.4,6-32.3,13.2
		c-2.4,2.5-4.2,8.1-0.2,7.9c-0.5,0.6-2.3,1.7,0.7,3.2c3.5,0.8,6.1,0.8,8.9-0.6c2.7-1.3,2.7-5.7,7.3-7.6c1.4,2.5,11.1-3.2,15.9-2.5
		c2.4,3.3,1.3,7.3,3.2,11c-2.1-0.4-4.9-3.5-8.2-2.8c-3.3,0.7-7.8,5.5-13.8,9.4c-3.7,2.7-7.1,4.4-10.2,6.9
		c-5.6,4.6-7.8,12.8-5.4,15.8c0.6,0.8,1.8,0,2.6-0.4c-1,1.9-0.7,4.5,1.2,4.5c5.7-0.1,8-1.9,12.3-7.1c0.5-0.6,0.5-1.8,0.5-2.6
		c0.5,1.4,1.7,0,2-0.5c5.7-7.9,8.2-10.5,12.8-12c6.3,4.9,8.4,5.8,16.9,9.5c0.3,5.2,1.5,12.6,5.9,17.5c-10.8,6.6-18,18.4-18,31.9
		c0,0.5,0.1,1.4,0,1.4c-10.8-6.9-24.2,8.1-37.1,27.2L158.4,196.6z M259.6,45.5c1.1,0,2.4,0,2.4,0.2c0,0.2-1.3,1-2.4,1
		c-1.1,0-2.1,0-2.1-0.2C257.5,46.3,258.5,45.5,259.6,45.5z M272.3,42c0.4,0.1,1.3-0.2,0.8,0.3c-0.4,0.5-0.5,0.8-0.8,0.8
		c-0.3,0-1.4-0.7-1.4-1.1C270.9,41.5,271.9,41.9,272.3,42z M260.7,163.4c-2,2.2-4.9,5.5-6.2,7.5c-2-2.2-4.9-5.3-7.1-7.5L260.7,163.4
		z"/>
	<path class="st6" d="M233.4,153.4c2.7,0,4.4,1.8,4.7,4.4c-3.1-1.4-6.6-1.2-9.6,0.5C228.5,155.6,230.7,153.4,233.4,153.4z
		 M237.6,147.6l0-17.6c5.1,0.7,9.8,2.8,13.7,5.9L239,148.3C238.5,148,238.2,147.9,237.6,147.6z M244.5,155.5c-0.1-0.4-0.3-1-0.4-1.2
		l12.6-12.7c2.9,4,4.8,8.7,5.3,13.9L244.5,155.5z M210.6,173c-0.1-0.1-0.2-0.2-0.2-0.4c-1.8-1.9-3.4-3.2-4.2-5.8
		c-0.4-1.2-0.6-2.3-0.9-3.6l14.7,0C216.3,166.6,212.7,170.4,210.6,173z M222.3,155.5l-17.2,0c0.5-5.1,2.4-9.8,5.2-13.7l12.4,12.4
		C222.6,154.5,222.3,155.1,222.3,155.5z M227.8,148.3l-12.2-12.2c3.9-3.1,8.5-5.3,13.7-6l0,17.5C228.9,147.7,228.4,148,227.8,148.3z
		 M158.4,196.6l148.7,0.5l0-6.9c-11.9-12.1-24.5-36.2-36.5-31.8c0-0.1,0-0.2,0-0.3c-0.1-14.3-8.5-26.8-20.4-32.9
		c-3.1-8.5-4-25-1.3-28.6c18.1-23.8,13.7-33.9,13.7-35.8c3.5-1.7,5.9-3.8,7.9-6c4.5,5.9,15,11.6,22.9,3.4c2-4.3-11.8,1.3-14-7
		c6-3.1,7.4,3,14.9,2c5.3-0.5,8.5-1.9,12.8-10.2c0.1-1.6,0.1-5.2-2.3-4.4c-2.1,2.2-5.1,7.8-9.4,7.2c-1.1-3.9,9.8-2.9,8.4-18.2
		c0.1-2.5-3.7-2.4-3.8-0.7c-0.4,5.6-8,12.1-10.4,11.8c-1.6-0.2,1.1-3.3-1.1-4.8c-3.9-0.2-2.1,4.4-8.2,4.1c-0.5-2.8,9.2-9.3,6.2-14.3
		c-6.8,0.3-4.5,7.6-19.4,10.6c-8,0.4-11.4,3.3-17.6,7.3c-3.9-2.6-8.2-5.4-13.1-6.3c4.2,6.1,1.3,7.3,3.5,13.7
		c-2.6,3.4-10.8,7.8-18.6,6.6c-1.9-0.1-3.7,1.3-3.8,3.4c-0.1,5-0.9,6.8,0.3,10.3c0.8,2.3,2.4,3.8,5.7,3.9c5.3,0.3,6.2-2.2,10.3-0.9
		c-2.3,1-2.6,2.6-6.5,3.5c-4.2,1-11,1.6-15,5.7c-3.8-4.1-7.5-14-12.3-17c-1.8-0.6-4.2-0.5-6.3-0.5c-20.1,2.5-25.4,6-32.3,13.2
		c-2.4,2.5-4.2,8.1-0.2,7.9c-0.5,0.6-2.3,1.7,0.7,3.2c3.5,0.8,6.1,0.8,8.9-0.6c2.7-1.3,2.7-5.7,7.3-7.6c1.4,2.5,11.1-3.2,15.9-2.5
		c2.4,3.3,1.3,7.3,3.2,11c-2.1-0.4-4.9-3.5-8.2-2.8c-3.3,0.7-7.8,5.5-13.8,9.4c-3.7,2.7-7.1,4.4-10.2,6.9
		c-5.6,4.6-7.8,12.8-5.4,15.8c0.6,0.8,1.8,0,2.6-0.4c-1,1.9-0.7,4.5,1.2,4.5c5.7-0.1,8-1.9,12.3-7.1c0.5-0.6,0.5-1.8,0.5-2.6
		c0.5,1.4,1.7,0,2-0.5c5.7-7.9,8.2-10.5,12.8-12c6.3,4.9,8.4,5.8,16.9,9.5c0.3,5.2,1.5,12.6,5.9,17.5c-10.8,6.6-18,18.4-18,31.9
		c0,0.5,0.1,1.4,0,1.4c-10.8-6.9-24.2,8.1-37.1,27.2L158.4,196.6z M259.6,45.5c1.1,0,2.4,0,2.4,0.2c0,0.2-1.3,1-2.4,1
		c-1.1,0-2.1,0-2.1-0.2C257.5,46.3,258.5,45.5,259.6,45.5z M272.3,42c0.4,0.1,1.3-0.2,0.8,0.3c-0.4,0.5-0.5,0.8-0.8,0.8
		c-0.3,0-1.4-0.7-1.4-1.1C270.9,41.5,271.9,41.9,272.3,42z M260.7,163.4c-2,2.2-4.9,5.5-6.2,7.5c-2-2.2-4.9-5.3-7.1-7.5L260.7,163.4
		z"/>
	<path class="st0" d="M240.3,38.9c1.8,1,7.4,9.1,2.3,9.1c-1-0.5-1.6-2.8-1.4-4.5C241.3,41.4,240.5,40.1,240.3,38.9"/>
	<path class="st0" d="M243.8,40c0.8,0,3.9,2.2,4.4,3.1c0,1.1-0.8,1.4-1.4,2.4C246.3,43.6,244.6,41,243.8,40"/>
	<path class="st0" d="M241.1,50.4c-2,1.4-2.5,2.8-8.6,5.3c-8.3,3.4-12,0.5-13,2.4c0,0.5-0.1,0.9-0.1,1.3c0,0.1,0.6,0.1,0.6,0.3
		c0,0.1,0,0.3-0.1,0.4c-0.1,0.2-0.5,0.2-0.6,0.4c-1,3.2-0.9,5.7,0.7,6.3c3.6,0.3,5.3-0.6,10.2-1.4c1-0.1,1.6,0.2,0.5,1.2
		c-3.1,0.8-5.7,1.4-10.5,2.2c0.4,1.3,1.2,2.8,4.6,2.4c1.6-0.2,2.8-0.5,5.2-1c4.5-0.5,6.4,1.9,10.3,2.8c5.6,1.2,11.9,0.4,15.2-7.7
		c0,0,0.1-0.2,0.6,0.7c-1.5,3.6-3.5,7.8-9.1,9.2c-6.6,1-9.6-2-12.1-2c-1.2,0-3.4,3.6-8.3,4.4c-10.5,1.7-15.7,5.5-18.8,12.4
		c3.3,0.3,5.7-1,10.9-3.6c-0.6,1.2-3.4,3.4-6.2,4.9c-1.5,0.8-7.7,1-12.7,0.2c-2.7-0.4-8.1-4.7-10.3-4.3c-2.5,0.5-6.3,4-10.2,7.1
		c-4.7,3.1-9.4,6.5-11.2,7.5c0.8,0.4,7.9,4.4,8.5,8.3c4-3.6,5.1-9.1,14.7-12.5c4.7,3.2,12.6,9.4,21.8,10.1
		c9.9,0.8,14.7-6.5,16.9-8.2c-2.4,4.3-4,5.9-8.7,8.7c-3.4,1.3-8.8,2.5-11.6,1.3c0.3,1.8,0.6,11.5,5.8,15.6
		c17.3-8.2,27.5-2.3,31.2-1.8c-1.3-5.2-4.1-23.4,0.6-28.3c5.2-5.9,9.9-16.4,11.1-18.3c1.9-3.2,3.8-14.7,1.7-16
		c-1-0.6-0.9,0.5-5.1-1.9c3.3,0.4,4.8,0.3,7.3-0.6c3.7-1.3,6-3.9,6.2-4.8c-2.4-1.4-7.8,1.9-12.7,3.7c-2.5,0.9-3.2-0.7-3.1-0.9
		c4-0.3,8.9-4.8,14.3-4.5c-7.5-2.7-11.7,1.8-16.2,3.1c-0.5-1.7,0.5-5.1-1.5-5.8C247.6,48.3,244.4,49.1,241.1,50.4"/>
	<path class="st3" d="M242,55.8c3.1,0,3.6,2.1,5.5,2.6c-3.3,0.5-2.3,2.9-5.4,2.9c-2.8-0.3-4-2.7-5.7-3.5
		C238.7,57.3,239,55.8,242,55.8"/>
	<path class="st6" d="M242,55.8c3.1,0,3.6,2.1,5.5,2.6c-3.3,0.5-2.3,2.9-5.4,2.9c-2.8-0.3-4-2.7-5.7-3.5
		C238.7,57.3,239,55.8,242,55.8z"/>
	<path class="st7" d="M242.6,57.4c-0.3-0.2-1.2-0.2-1.6,0.4c-0.2,0.5,0.1,1.5,0.5,1.6c-0.1-0.4-0.2-0.8,0-1.4
		C241.8,57.6,242,57.6,242.6,57.4"/>
	<path class="st7" d="M167,103.5c1.7,0,8.4,4.7,8.2,7.6c-0.2,2.9-4.2,6.2-5.7,7.1c-0.5,0.3-4.5,2.1-5.1,0.7c-0.6-1.4,3-6.7,2-8.2
		c-3.5,4.4-5.7,5.2-5.7,3.9C160.6,110.7,165.3,103.5,167,103.5"/>
	<path class="st6" d="M167,103.5c1.7,0,8.4,4.7,8.2,7.6c-0.2,2.9-4.2,6.2-5.7,7.1c-0.5,0.3-4.5,2.1-5.1,0.7c-0.6-1.4,3-6.7,2-8.2
		c-3.5,4.4-5.7,5.2-5.7,3.9C160.6,110.7,165.3,103.5,167,103.5z"/>
	<path class="st0" d="M198.2,65.9c5.3,2,9.8,14.4,12.6,16.4c-1.6,1.6-3.5,4.1-4.6,7.5c-3.1,1-6.1-0.1-6.6-0.5
		c-1.5-1.9-1-12-5.1-13.9c-2.4-0.5-6.2,1.1-10.3,2.3c-5.5,2.6-4.4,0.1-6.2,0.3c-1.3-3.1-4.1-5.9-5.7-6.9
		C172.2,69.9,188.8,64.6,198.2,65.9"/>
	<path class="st7" d="M170,72.2c2.1,0.2,6.2,4.7,6.1,6.3c-2.7,1.9-3.8,5.3-5.6,6.7c-0.6,0.5-5.9,2.1-8.2,0.4c-0.5-1.2,3.6-5,5.6-7.9
		c-6.6,7.1-7.6,5.5-7.6,4.7C160.3,79.9,167.9,72,170,72.2"/>
	<path class="st6" d="M170,72.2c2.1,0.2,6.2,4.7,6.1,6.3c-2.7,1.9-3.8,5.3-5.6,6.7c-0.6,0.5-5.9,2.1-8.2,0.4c-0.5-1.2,3.6-5,5.6-7.9
		c-6.6,7.1-7.6,5.5-7.6,4.7C160.3,79.9,167.9,72,170,72.2z"/>
	<path class="st7" d="M257.1,43.7c6-1.2,9.3,0.8,12.2-0.2c1.6-0.5-2.7-1.7-2.4-2.5c0.1-0.5,2.1-0.1,5.7-1.2c0.5,3.1,15,3.6,15.3-3.7
		c-5,6-10.2,3.3-9.9,2.1c1.1-5.2,7.8-9.4,7.7-12.7c-4.1,0.8-5.3,8.5-18.9,10.4c-8.6,0.3-20.2,10.1-19.2,11.8
		C252.1,47,251.8,48.9,257.1,43.7"/>
	<path class="st6" d="M257.1,43.7c6-1.2,9.3,0.8,12.2-0.2c1.6-0.5-2.7-1.7-2.4-2.5c0.1-0.5,2.1-0.1,5.7-1.2c0.5,3.1,15,3.6,15.3-3.7
		c-5,6-10.2,3.3-9.9,2.1c1.1-5.2,7.8-9.4,7.7-12.7c-4.1,0.8-5.3,8.5-18.9,10.4c-8.6,0.3-20.2,10.1-19.2,11.8
		C252.1,47,251.8,48.9,257.1,43.7z"/>
	<path class="st7" d="M282.2,43.9c0.8,0,14.8-1.9,19.7-16.5c1.2,13.4-7.2,11.1-8.7,17.8c2.4,6.7,10.1-0.9,12.2-4.7
		c-1,7.6-7.8,11.5-13,10.4c-9.1-4.6-15-3.6-15.7-2.1c-1.3,2.9,3.5,10.9,14.1,9c-0.5,1.3-7.7,5.5-16.6-2.2c-1.1-1.4-3.3-5.5-5.2-5.5
		c-2.4,0-4.8-3.6-16.6,2.4c0.8-2.3-0.8-3.8-0.8-4c0-0.2,2.8,0,13.2-1.5C269.9,43.8,274.7,45.5,282.2,43.9"/>
	<path class="st6" d="M282.2,43.9c0.8,0,14.8-1.9,19.7-16.5c1.2,13.4-7.2,11.1-8.7,17.8c2.4,6.7,10.1-0.9,12.2-4.7
		c-1,7.6-7.8,11.5-13,10.4c-9.1-4.6-15-3.6-15.7-2.1c-1.3,2.9,3.5,10.9,14.1,9c-0.5,1.3-7.7,5.5-16.6-2.2c-1.1-1.4-3.3-5.5-5.2-5.5
		c-2.4,0-4.8-3.6-16.6,2.4c0.8-2.3-0.8-3.8-0.8-4c0-0.2,2.8,0,13.2-1.5C269.9,43.8,274.7,45.5,282.2,43.9z"/>
	<path class="st8" d="M158.6,196.7H307v-3.9c-20.2-21.4-29.6-49.6-50.9-20.1l15.3,17.6c0.5,1-1,2.5-2.2,1.1
		c-5.5-6.4-10.3-12.1-15-17.3c-13.5-15.3-21.8-23.8-41.6,0.9l14.4,16.4c0.6,1.1-0.6,2.8-2.1,1.7c-31.1-35.1-33.5-50.8-66.1-1.8
		L158.6,196.7z"/>
	<path class="st6" d="M158.6,196.7H307v-3.9c-20.2-21.4-29.6-49.6-50.9-20.1l15.3,17.6c0.5,1-1,2.5-2.2,1.1
		c-5.5-6.4-10.3-12.1-15-17.3c-13.5-15.3-21.8-23.8-41.6,0.9l14.4,16.4c0.6,1.1-0.6,2.8-2.1,1.7c-31.1-35.1-33.5-50.8-66.1-1.8
		L158.6,196.7z"/>
	<path class="st7" d="M239.7,158.4l3.9,2.3c0.2-0.8,0.3-1.4,0.3-2.2c0-5.8-4.7-10.6-10.6-10.6s-10.6,4.7-10.6,10.6
		c0,1.1,0,1.9,0.3,2.9l3.8-2.3c0-0.2,0-0.3,0-0.5c0-3.5,2.9-6.4,6.4-6.4C236.8,152.1,239.7,154.8,239.7,158.4"/>
	<path class="st6" d="M239.7,158.4l3.9,2.3c0.2-0.8,0.3-1.4,0.3-2.2c0-5.8-4.7-10.6-10.6-10.6s-10.6,4.7-10.6,10.6
		c0,1.1,0,1.9,0.3,2.9l3.8-2.3c0-0.2,0-0.3,0-0.5c0-3.5,2.9-6.4,6.4-6.4C236.8,152.1,239.7,154.8,239.7,158.4z"/>
	<path class="st7" d="M204.5,166.6c-2-2.6-4.2-4.2-6.8-6.1c-0.1-0.8-0.2-1.6-0.2-2.5c0-19.7,16.1-35.8,35.8-35.8
		c20,0,36.3,16.7,36,36.5c-1.7,0.5-3.9,1.5-5.6,2.5c1.6-17.7-11.9-33.1-30.1-33.1c-16.8,0-30.4,13.7-30.4,30.4
		C203.1,161.3,203.6,164.2,204.5,166.6"/>
	<path class="st6" d="M204.5,166.6c-2-2.6-4.2-4.2-6.8-6.1c-0.1-0.8-0.2-1.6-0.2-2.5c0-19.7,16.1-35.8,35.8-35.8
		c20,0,36.3,16.7,36,36.5c-1.7,0.5-3.9,1.5-5.6,2.5c1.6-17.7-11.9-33.1-30.1-33.1c-16.8,0-30.4,13.7-30.4,30.4
		C203.1,161.3,203.6,164.2,204.5,166.6z"/>
	<path class="st7" d="M230.6,129.9c1.8-0.1,3.6-0.2,5.7,0v17c-2-0.4-3.5-0.5-5.7,0V129.9z"/>
	<path class="st7" d="M210.8,140.9c1.1-1.4,2.6-3,4-4.1l11.8,12c-1.7,1-2.6,2.5-3.8,4.3L210.8,140.9z"/>
	<path class="st7" d="M205.1,162.2c-0.2-1.6-0.4-3.5-0.2-5.7l16.7,0c-0.4,2-0.4,3.6,0,5.7L205.1,162.2z"/>
	<path class="st7" d="M252.2,136.7c1.2,1.1,2.7,2.5,3.9,4.1l-12.3,12.1c-1.1-1.7-2-3-3.8-4.2L252.2,136.7z"/>
	<path class="st7" d="M262,156.5c0.2,1.9,0,3.8-0.2,5.7l-17.1,0c0.4-1.9,0.5-3.5,0-5.7L262,156.5z"/>
</g>
</svg>
